<?xml version="1.0" encoding="UTF-8"?><svg xmlns="http://www.w3.org/2000/svg" viewBox="0 0 48.96 40"><defs><style>.d{fill:#393938;}</style></defs><g id="a"/><g id="b"><g id="c"><path class="d" d="M15.38,40H5.93v-3c-1.1,0-1.95,0-3.03-.03v-2.98H0V12.22H2.98V5.96h2.99V3c1.02,0,1.95,0,2.95-.03V0h9.45V2.96c3.73,.15,11.15,.1,12.19-.09V0h9.2V3.03h3.26v2.99h2.97v6.22h2.97v21.75h-3.01v3.02h-2.96v2.98h-9.45v-3.25c1.03,0,1.97,0,2.94-.03v-2.66H12.44v2.69c1.01,0,1.95,0,2.95,.03v3.22Zm5.91-15.5v-6.01h-3.19v-2.93h-5.74v2.94c-1.07,.04-2.15-.09-3.15,.05v5.96h3.21v2.95h5.7c0-1.02,0-1.97,.03-2.96h3.14Zm6.31,.04h3.22v2.9h5.74v-2.98h3.17v-5.97c-1.13-.04-2.12,.1-3.24-.07v-2.9h-5.7v3h-3.19v6.01Zm-15.49,9.19v-2.73c-.98,0-1.96,0-2.9,.03v2.7h2.9Zm24.71-2.71v2.67h2.9v-2.67h-2.9Z"/></g></g></svg>