<?xml version="1.0" encoding="UTF-8"?><svg xmlns="http://www.w3.org/2000/svg" viewBox="0 0 49.25 40"><defs><style>.d{fill:#393938;}</style></defs><g id="a"/><g id="b"><g id="c"><path class="d" d="M0,18.5V0H6.25V6c.57,0,1.06,0,1.56,0,.48,0,.97,.02,1.49,.03v2.96c2.1,.03,4.16-.02,6.25,.03v3.23c2.03,0,4.02,0,6.02,0,.04,0,.08,.02,.11,.04,.03,.02,.06,.06,.13,.14v2.8h2.71V3c.57,0,1.06,0,1.56,0,.48,0,.96-.02,1.44-.03V0h12.5V3.03h3.28v2.97h5.97v3.25h-3c0,1.62,0,3.16,0,4.69,0,1.52,.02,3.04-.02,4.61h-2.99v6.22h-3.26v6.26h-3.01v3.01h-3.01v2.95c-2.1,.07-4.16-.04-6.21,.06v2.96H9v-3.02H2.99v-2.98H0v-3.25H8.94v-3.04h-2.94c0-.53,0-1.03,0-1.52,0-.48-.02-.97-.03-1.48H3c0-2.03,0-4.02,0-6.01,0-.04-.02-.08-.04-.11-.02-.03-.06-.06-.09-.08H0Z"/></g></g></svg>